<svg xmlns="http://www.w3.org/2000/svg" viewBox="0 0 752 460" width="752" height="460" font-family="system-ui, -apple-system, sans-serif">
<rect width="752" height="460" fill="#1a1a2e" rx="12"/>
<text x="210.0" y="22" text-anchor="middle" fill="#c8b890" font-size="14">Yirgacheffe</text>
<text x="210.0" y="41" text-anchor="middle" fill="#a09880" font-size="11">from Ethiopia</text>
<text x="328.0" y="22" text-anchor="middle" fill="#c8b890" font-size="14">Santos</text>
<text x="328.0" y="41" text-anchor="middle" fill="#a09880" font-size="11">from Brazil</text>
<text x="446.0" y="22" text-anchor="middle" fill="#c8b890" font-size="14">Espresso Blend</text>
<text x="446.0" y="41" text-anchor="middle" fill="#a09880" font-size="11">from Italy</text>
<text x="564.0" y="22" text-anchor="middle" fill="#c8b890" font-size="14">Nescafé Classic</text>
<text x="564.0" y="41" text-anchor="middle" fill="#a09880" font-size="11">instant</text>
<text x="682.0" y="22" text-anchor="middle" fill="#c8b890" font-size="14">Kenyan</text>
<text x="682.0" y="41" text-anchor="middle" fill="#a09880" font-size="11">AA</text>
<text x="150" y="74" text-anchor="end" dominant-baseline="central" fill="#d8d0c0" font-size="16">Aroma</text>
<path d="M166,56 Q160,56 254,56 Q260,56 260,62 L260,92 260,92 L160,92 160,92 L160,62 Q160,56 Z" fill="#4a1a8a"/>
<text x="210.0" y="74.0" text-anchor="middle" dominant-baseline="central" fill="#ede4ff" font-size="18" font-weight="600">9</text>
<path d="M284,56 Q278,56 372,56 Q378,56 378,62 L378,92 378,92 L278,92 278,92 L278,62 Q278,56 Z" fill="#9f6fe1"/>
<text x="328.0" y="74.0" text-anchor="middle" dominant-baseline="central" fill="#2a1050" font-size="18" font-weight="600">6</text>
<path d="M402,56 Q396,56 490,56 Q496,56 496,62 L496,92 496,92 L396,92 396,92 L396,62 Q396,56 Z" fill="#8353c4"/>
<text x="446.0" y="74.0" text-anchor="middle" dominant-baseline="central" fill="#ede4ff" font-size="18" font-weight="600">7</text>
<path d="M520,56 Q514,56 608,56 Q614,56 614,62 L614,92 614,92 L514,92 514,92 L514,62 Q514,56 Z" fill="#e0ceff"/>
<text x="564.0" y="74.0" text-anchor="middle" dominant-baseline="central" fill="#3a1a6a" font-size="18" font-weight="600">2</text>
<path d="M638,56 Q632,56 726,56 Q732,56 732,62 L732,92 732,92 L632,92 632,92 L632,62 Q632,56 Z" fill="#6636a7"/>
<text x="682.0" y="74.0" text-anchor="middle" dominant-baseline="central" fill="#ede4ff" font-size="18" font-weight="600">8</text>
<text x="150" y="110" text-anchor="end" dominant-baseline="central" fill="#d8d0c0" font-size="16">Flavor</text>
<path d="M160,92 260,92 260,92 L260,128 260,128 L160,128 160,128 L160,92 Z" fill="#4a1a8a"/>
<text x="210.0" y="110.0" text-anchor="middle" dominant-baseline="central" fill="#ede4ff" font-size="18" font-weight="600">9</text>
<path d="M278,92 378,92 378,92 L378,128 378,128 L278,128 278,128 L278,92 Z" fill="#9f6fe1"/>
<text x="328.0" y="110.0" text-anchor="middle" dominant-baseline="central" fill="#2a1050" font-size="18" font-weight="600">6</text>
<path d="M396,92 496,92 496,92 L496,128 496,128 L396,128 396,128 L396,92 Z" fill="#6636a7"/>
<text x="446.0" y="110.0" text-anchor="middle" dominant-baseline="central" fill="#ede4ff" font-size="18" font-weight="600">8</text>
<path d="M514,92 614,92 614,92 L614,128 614,128 L514,128 514,128 L514,92 Z" fill="#e0ceff"/>
<text x="564.0" y="110.0" text-anchor="middle" dominant-baseline="central" fill="#3a1a6a" font-size="18" font-weight="600">2</text>
<path d="M632,92 732,92 732,92 L732,128 732,128 L632,128 632,128 L632,92 Z" fill="#4a1a8a"/>
<text x="682.0" y="110.0" text-anchor="middle" dominant-baseline="central" fill="#ede4ff" font-size="18" font-weight="600">9</text>
<line x1="160" y1="92" x2="260" y2="92" stroke="#1a1a2e" stroke-width="1.2"/>
<line x1="278" y1="92" x2="378" y2="92" stroke="#1a1a2e" stroke-width="1.2"/>
<line x1="396" y1="92" x2="496" y2="92" stroke="#1a1a2e" stroke-width="1.2"/>
<line x1="514" y1="92" x2="614" y2="92" stroke="#1a1a2e" stroke-width="1.2"/>
<line x1="632" y1="92" x2="732" y2="92" stroke="#1a1a2e" stroke-width="1.2"/>
<text x="150" y="146" text-anchor="end" dominant-baseline="central" fill="#d8d0c0" font-size="16">Aftertaste</text>
<path d="M160,128 260,128 260,128 L260,164 260,164 L160,164 160,164 L160,128 Z" fill="#8353c4"/>
<text x="210.0" y="146.0" text-anchor="middle" dominant-baseline="central" fill="#ede4ff" font-size="18" font-weight="600">7</text>
<path d="M278,128 378,128 378,128 L378,164 378,164 L278,164 278,164 L278,128 Z" fill="#bc8cff"/>
<text x="328.0" y="146.0" text-anchor="middle" dominant-baseline="central" fill="#2a1050" font-size="18" font-weight="600">5</text>
<path d="M396,128 496,128 496,128 L496,164 496,164 L396,164 396,164 L396,128 Z" fill="#6636a7"/>
<text x="446.0" y="146.0" text-anchor="middle" dominant-baseline="central" fill="#ede4ff" font-size="18" font-weight="600">8</text>
<path d="M514,128 614,128 614,128 L614,164 614,164 L514,164 514,164 L514,128 Z" fill="#e0ceff"/>
<text x="564.0" y="146.0" text-anchor="middle" dominant-baseline="central" fill="#3a1a6a" font-size="18" font-weight="600">2</text>
<path d="M632,128 732,128 732,128 L732,164 732,164 L632,164 632,164 L632,128 Z" fill="#6636a7"/>
<text x="682.0" y="146.0" text-anchor="middle" dominant-baseline="central" fill="#ede4ff" font-size="18" font-weight="600">8</text>
<line x1="160" y1="128" x2="260" y2="128" stroke="#1a1a2e" stroke-width="1.2"/>
<line x1="278" y1="128" x2="378" y2="128" stroke="#1a1a2e" stroke-width="1.2"/>
<line x1="396" y1="128" x2="496" y2="128" stroke="#1a1a2e" stroke-width="1.2"/>
<line x1="514" y1="128" x2="614" y2="128" stroke="#1a1a2e" stroke-width="1.2"/>
<line x1="632" y1="128" x2="732" y2="128" stroke="#1a1a2e" stroke-width="1.2"/>
<text x="150" y="182" text-anchor="end" dominant-baseline="central" fill="#d8d0c0" font-size="16">Acidity</text>
<path d="M160,164 260,164 260,164 L260,200 260,200 L160,200 160,200 L160,164 Z" fill="#4a1a8a"/>
<text x="210.0" y="182.0" text-anchor="middle" dominant-baseline="central" fill="#ede4ff" font-size="18" font-weight="600">9</text>
<path d="M278,164 378,164 378,164 L378,200 378,200 L278,200 278,200 L278,164 Z" fill="#d4b8ff"/>
<text x="328.0" y="182.0" text-anchor="middle" dominant-baseline="central" fill="#3a1a6a" font-size="18" font-weight="600">3</text>
<path d="M396,164 496,164 496,164 L496,200 496,200 L396,200 396,200 L396,164 Z" fill="#bc8cff"/>
<text x="446.0" y="182.0" text-anchor="middle" dominant-baseline="central" fill="#2a1050" font-size="18" font-weight="600">5</text>
<path d="M514,164 614,164 614,164 L614,200 614,200 L514,200 514,200 L514,164 Z" fill="#ede4ff"/>
<text x="564.0" y="182.0" text-anchor="middle" dominant-baseline="central" fill="#3a1a6a" font-size="18" font-weight="600">1</text>
<path d="M632,164 732,164 732,164 L732,200 732,200 L632,200 632,200 L632,164 Z" fill="#4a1a8a"/>
<text x="682.0" y="182.0" text-anchor="middle" dominant-baseline="central" fill="#ede4ff" font-size="18" font-weight="600">9</text>
<line x1="160" y1="164" x2="260" y2="164" stroke="#1a1a2e" stroke-width="1.2"/>
<line x1="278" y1="164" x2="378" y2="164" stroke="#1a1a2e" stroke-width="1.2"/>
<line x1="396" y1="164" x2="496" y2="164" stroke="#1a1a2e" stroke-width="1.2"/>
<line x1="514" y1="164" x2="614" y2="164" stroke="#1a1a2e" stroke-width="1.2"/>
<line x1="632" y1="164" x2="732" y2="164" stroke="#1a1a2e" stroke-width="1.2"/>
<text x="150" y="218" text-anchor="end" dominant-baseline="central" fill="#d8d0c0" font-size="16">Body</text>
<path d="M160,200 260,200 260,200 L260,236 260,236 L160,236 160,236 L160,200 Z" fill="#c8a2ff"/>
<text x="210.0" y="218.0" text-anchor="middle" dominant-baseline="central" fill="#3a1a6a" font-size="18" font-weight="600">4</text>
<path d="M278,200 378,200 378,200 L378,236 378,236 L278,236 278,236 L278,200 Z" fill="#8353c4"/>
<text x="328.0" y="218.0" text-anchor="middle" dominant-baseline="central" fill="#ede4ff" font-size="18" font-weight="600">7</text>
<path d="M396,200 496,200 496,200 L496,236 496,236 L396,236 396,236 L396,200 Z" fill="#4a1a8a"/>
<text x="446.0" y="218.0" text-anchor="middle" dominant-baseline="central" fill="#ede4ff" font-size="18" font-weight="600">9</text>
<path d="M514,200 614,200 614,200 L614,236 614,236 L514,236 514,236 L514,200 Z" fill="#e0ceff"/>
<text x="564.0" y="218.0" text-anchor="middle" dominant-baseline="central" fill="#3a1a6a" font-size="18" font-weight="600">2</text>
<path d="M632,200 732,200 732,200 L732,236 732,236 L632,236 632,236 L632,200 Z" fill="#9f6fe1"/>
<text x="682.0" y="218.0" text-anchor="middle" dominant-baseline="central" fill="#2a1050" font-size="18" font-weight="600">6</text>
<line x1="160" y1="200" x2="260" y2="200" stroke="#1a1a2e" stroke-width="1.2"/>
<line x1="278" y1="200" x2="378" y2="200" stroke="#1a1a2e" stroke-width="1.2"/>
<line x1="396" y1="200" x2="496" y2="200" stroke="#1a1a2e" stroke-width="1.2"/>
<line x1="514" y1="200" x2="614" y2="200" stroke="#1a1a2e" stroke-width="1.2"/>
<line x1="632" y1="200" x2="732" y2="200" stroke="#1a1a2e" stroke-width="1.2"/>
<text x="150" y="254" text-anchor="end" dominant-baseline="central" fill="#d8d0c0" font-size="16">Balance</text>
<path d="M160,236 260,236 260,236 L260,272 260,272 L160,272 160,272 L160,236 Z" fill="#8353c4"/>
<text x="210.0" y="254.0" text-anchor="middle" dominant-baseline="central" fill="#ede4ff" font-size="18" font-weight="600">7</text>
<path d="M278,236 378,236 378,236 L378,272 378,272 L278,272 278,272 L278,236 Z" fill="#6636a7"/>
<text x="328.0" y="254.0" text-anchor="middle" dominant-baseline="central" fill="#ede4ff" font-size="18" font-weight="600">8</text>
<path d="M396,236 496,236 496,236 L496,272 496,272 L396,272 396,272 L396,236 Z" fill="#8353c4"/>
<text x="446.0" y="254.0" text-anchor="middle" dominant-baseline="central" fill="#ede4ff" font-size="18" font-weight="600">7</text>
<path d="M514,236 614,236 614,236 L614,272 614,272 L514,272 514,272 L514,236 Z" fill="#d4b8ff"/>
<text x="564.0" y="254.0" text-anchor="middle" dominant-baseline="central" fill="#3a1a6a" font-size="18" font-weight="600">3</text>
<path d="M632,236 732,236 732,236 L732,272 732,272 L632,272 632,272 L632,236 Z" fill="#8353c4"/>
<text x="682.0" y="254.0" text-anchor="middle" dominant-baseline="central" fill="#ede4ff" font-size="18" font-weight="600">7</text>
<line x1="160" y1="236" x2="260" y2="236" stroke="#1a1a2e" stroke-width="1.2"/>
<line x1="278" y1="236" x2="378" y2="236" stroke="#1a1a2e" stroke-width="1.2"/>
<line x1="396" y1="236" x2="496" y2="236" stroke="#1a1a2e" stroke-width="1.2"/>
<line x1="514" y1="236" x2="614" y2="236" stroke="#1a1a2e" stroke-width="1.2"/>
<line x1="632" y1="236" x2="732" y2="236" stroke="#1a1a2e" stroke-width="1.2"/>
<text x="150" y="290" text-anchor="end" dominant-baseline="central" fill="#d8d0c0" font-size="16">Sweetness</text>
<path d="M160,272 260,272 260,272 L260,308 260,308 L160,308 160,308 L160,272 Z" fill="#6636a7"/>
<text x="210.0" y="290.0" text-anchor="middle" dominant-baseline="central" fill="#ede4ff" font-size="18" font-weight="600">8</text>
<path d="M278,272 378,272 378,272 L378,308 378,308 L278,308 278,308 L278,272 Z" fill="#6636a7"/>
<text x="328.0" y="290.0" text-anchor="middle" dominant-baseline="central" fill="#ede4ff" font-size="18" font-weight="600">8</text>
<path d="M396,272 496,272 496,272 L496,308 496,308 L396,308 396,308 L396,272 Z" fill="#c8a2ff"/>
<text x="446.0" y="290.0" text-anchor="middle" dominant-baseline="central" fill="#3a1a6a" font-size="18" font-weight="600">4</text>
<path d="M514,272 614,272 614,272 L614,308 614,308 L514,308 514,308 L514,272 Z" fill="#e0ceff"/>
<text x="564.0" y="290.0" text-anchor="middle" dominant-baseline="central" fill="#3a1a6a" font-size="18" font-weight="600">2</text>
<path d="M632,272 732,272 732,272 L732,308 732,308 L632,308 632,308 L632,272 Z" fill="#9f6fe1"/>
<text x="682.0" y="290.0" text-anchor="middle" dominant-baseline="central" fill="#2a1050" font-size="18" font-weight="600">6</text>
<line x1="160" y1="272" x2="260" y2="272" stroke="#1a1a2e" stroke-width="1.2"/>
<line x1="278" y1="272" x2="378" y2="272" stroke="#1a1a2e" stroke-width="1.2"/>
<line x1="396" y1="272" x2="496" y2="272" stroke="#1a1a2e" stroke-width="1.2"/>
<line x1="514" y1="272" x2="614" y2="272" stroke="#1a1a2e" stroke-width="1.2"/>
<line x1="632" y1="272" x2="732" y2="272" stroke="#1a1a2e" stroke-width="1.2"/>
<text x="150" y="326" text-anchor="end" dominant-baseline="central" fill="#d8d0c0" font-size="16">Uniformity</text>
<path d="M160,308 260,308 260,308 L260,344 260,344 L160,344 160,344 L160,308 Z" fill="#4a1a8a"/>
<text x="210.0" y="326.0" text-anchor="middle" dominant-baseline="central" fill="#ede4ff" font-size="18" font-weight="600">9</text>
<path d="M278,308 378,308 378,308 L378,344 378,344 L278,344 278,344 L278,308 Z" fill="#4a1a8a"/>
<text x="328.0" y="326.0" text-anchor="middle" dominant-baseline="central" fill="#ede4ff" font-size="18" font-weight="600">9</text>
<path d="M396,308 496,308 496,308 L496,344 496,344 L396,344 396,344 L396,308 Z" fill="#6636a7"/>
<text x="446.0" y="326.0" text-anchor="middle" dominant-baseline="central" fill="#ede4ff" font-size="18" font-weight="600">8</text>
<path d="M514,308 614,308 614,308 L614,344 614,344 L514,344 514,344 L514,308 Z" fill="#8353c4"/>
<text x="564.0" y="326.0" text-anchor="middle" dominant-baseline="central" fill="#ede4ff" font-size="18" font-weight="600">7</text>
<path d="M632,308 732,308 732,308 L732,344 732,344 L632,344 632,344 L632,308 Z" fill="#6636a7"/>
<text x="682.0" y="326.0" text-anchor="middle" dominant-baseline="central" fill="#ede4ff" font-size="18" font-weight="600">8</text>
<line x1="160" y1="308" x2="260" y2="308" stroke="#1a1a2e" stroke-width="1.2"/>
<line x1="278" y1="308" x2="378" y2="308" stroke="#1a1a2e" stroke-width="1.2"/>
<line x1="396" y1="308" x2="496" y2="308" stroke="#1a1a2e" stroke-width="1.2"/>
<line x1="514" y1="308" x2="614" y2="308" stroke="#1a1a2e" stroke-width="1.2"/>
<line x1="632" y1="308" x2="732" y2="308" stroke="#1a1a2e" stroke-width="1.2"/>
<text x="150" y="362" text-anchor="end" dominant-baseline="central" fill="#d8d0c0" font-size="16">Cleanliness</text>
<path d="M160,344 260,344 260,344 L260,380 260,380 L160,380 160,380 L160,344 Z" fill="#4a1a8a"/>
<text x="210.0" y="362.0" text-anchor="middle" dominant-baseline="central" fill="#ede4ff" font-size="18" font-weight="600">9</text>
<path d="M278,344 378,344 378,344 L378,380 378,380 L278,380 278,380 L278,344 Z" fill="#6636a7"/>
<text x="328.0" y="362.0" text-anchor="middle" dominant-baseline="central" fill="#ede4ff" font-size="18" font-weight="600">8</text>
<path d="M396,344 496,344 496,344 L496,380 496,380 L396,380 396,380 L396,344 Z" fill="#9f6fe1"/>
<text x="446.0" y="362.0" text-anchor="middle" dominant-baseline="central" fill="#2a1050" font-size="18" font-weight="600">6</text>
<path d="M514,344 614,344 614,344 L614,380 614,380 L514,380 514,380 L514,344 Z" fill="#d4b8ff"/>
<text x="564.0" y="362.0" text-anchor="middle" dominant-baseline="central" fill="#3a1a6a" font-size="18" font-weight="600">3</text>
<path d="M632,344 732,344 732,344 L732,380 732,380 L632,380 632,380 L632,344 Z" fill="#4a1a8a"/>
<text x="682.0" y="362.0" text-anchor="middle" dominant-baseline="central" fill="#ede4ff" font-size="18" font-weight="600">9</text>
<line x1="160" y1="344" x2="260" y2="344" stroke="#1a1a2e" stroke-width="1.2"/>
<line x1="278" y1="344" x2="378" y2="344" stroke="#1a1a2e" stroke-width="1.2"/>
<line x1="396" y1="344" x2="496" y2="344" stroke="#1a1a2e" stroke-width="1.2"/>
<line x1="514" y1="344" x2="614" y2="344" stroke="#1a1a2e" stroke-width="1.2"/>
<line x1="632" y1="344" x2="732" y2="344" stroke="#1a1a2e" stroke-width="1.2"/>
<text x="150" y="398" text-anchor="end" dominant-baseline="central" fill="#d8d0c0" font-size="16">Overall</text>
<path d="M160,380 260,380 260,380 L260,410 Q260,416 254,416 L166,416 Q160,416 160,410 L160,380 Z" fill="#4a1a8a"/>
<text x="210.0" y="398.0" text-anchor="middle" dominant-baseline="central" fill="#ede4ff" font-size="18" font-weight="600">9</text>
<path d="M278,380 378,380 378,380 L378,410 Q378,416 372,416 L284,416 Q278,416 278,410 L278,380 Z" fill="#8353c4"/>
<text x="328.0" y="398.0" text-anchor="middle" dominant-baseline="central" fill="#ede4ff" font-size="18" font-weight="600">7</text>
<path d="M396,380 496,380 496,380 L496,410 Q496,416 490,416 L402,416 Q396,416 396,410 L396,380 Z" fill="#8353c4"/>
<text x="446.0" y="398.0" text-anchor="middle" dominant-baseline="central" fill="#ede4ff" font-size="18" font-weight="600">7</text>
<path d="M514,380 614,380 614,380 L614,410 Q614,416 608,416 L520,416 Q514,416 514,410 L514,380 Z" fill="#e0ceff"/>
<text x="564.0" y="398.0" text-anchor="middle" dominant-baseline="central" fill="#3a1a6a" font-size="18" font-weight="600">2</text>
<path d="M632,380 732,380 732,380 L732,410 Q732,416 726,416 L638,416 Q632,416 632,410 L632,380 Z" fill="#6636a7"/>
<text x="682.0" y="398.0" text-anchor="middle" dominant-baseline="central" fill="#ede4ff" font-size="18" font-weight="600">8</text>
<line x1="160" y1="380" x2="260" y2="380" stroke="#1a1a2e" stroke-width="1.2"/>
<line x1="278" y1="380" x2="378" y2="380" stroke="#1a1a2e" stroke-width="1.2"/>
<line x1="396" y1="380" x2="496" y2="380" stroke="#1a1a2e" stroke-width="1.2"/>
<line x1="514" y1="380" x2="614" y2="380" stroke="#1a1a2e" stroke-width="1.2"/>
<line x1="632" y1="380" x2="732" y2="380" stroke="#1a1a2e" stroke-width="1.2"/>
<text x="170.0" y="448" fill="#a09880" font-size="14">low</text>
<rect x="202.0" y="434" width="30" height="18" rx="3" fill="#ede4ff"/>
<text x="217.0" y="447" text-anchor="middle" fill="#3a1a6a" font-size="12">1</text>
<rect x="236.0" y="434" width="30" height="18" rx="3" fill="#e0ceff"/>
<text x="251.0" y="447" text-anchor="middle" fill="#3a1a6a" font-size="12">2</text>
<rect x="270.0" y="434" width="30" height="18" rx="3" fill="#d4b8ff"/>
<text x="285.0" y="447" text-anchor="middle" fill="#3a1a6a" font-size="12">3</text>
<rect x="304.0" y="434" width="30" height="18" rx="3" fill="#c8a2ff"/>
<text x="319.0" y="447" text-anchor="middle" fill="#3a1a6a" font-size="12">4</text>
<rect x="338.0" y="434" width="30" height="18" rx="3" fill="#bc8cff"/>
<text x="353.0" y="447" text-anchor="middle" fill="#2a1050" font-size="12">5</text>
<rect x="372.0" y="434" width="30" height="18" rx="3" fill="#9f6fe1"/>
<text x="387.0" y="447" text-anchor="middle" fill="#2a1050" font-size="12">6</text>
<rect x="406.0" y="434" width="30" height="18" rx="3" fill="#8353c4"/>
<text x="421.0" y="447" text-anchor="middle" fill="#ede4ff" font-size="12">7</text>
<rect x="440.0" y="434" width="30" height="18" rx="3" fill="#6636a7"/>
<text x="455.0" y="447" text-anchor="middle" fill="#ede4ff" font-size="12">8</text>
<rect x="474.0" y="434" width="30" height="18" rx="3" fill="#4a1a8a"/>
<text x="489.0" y="447" text-anchor="middle" fill="#ede4ff" font-size="12">9</text>
<rect x="508.0" y="434" width="30" height="18" rx="3" fill="#2d0d6e"/>
<text x="523.0" y="447" text-anchor="middle" fill="#ede4ff" font-size="12">10</text>
<text x="546.0" y="448" fill="#a09880" font-size="14">high</text>
</svg>